<?xml version="1.0" encoding="UTF-8" standalone="no"?>
<svg
   xmlns:dc="http://purl.org/dc/elements/1.1/"
   xmlns:cc="http://creativecommons.org/ns#"
   xmlns:rdf="http://www.w3.org/1999/02/22-rdf-syntax-ns#"
   xmlns:svg="http://www.w3.org/2000/svg"
   xmlns="http://www.w3.org/2000/svg"
   xmlns:sodipodi="http://sodipodi.sourceforge.net/DTD/sodipodi-0.dtd"
   xmlns:inkscape="http://www.inkscape.org/namespaces/inkscape"
   width="200mm"
   height="170mm"
   viewBox="0 0 200 170"
   version="1.1"
   id="svg8"
   inkscape:version="1.0.1 (c497b03c, 2020-09-10)"
   sodipodi:docname="drawing.svg">
  <defs
     id="defs2" />
  <sodipodi:namedview
     id="base"
     pagecolor="#ffffff"
     bordercolor="#666666"
     borderopacity="1.0"
     inkscape:pageopacity="0.0"
     inkscape:pageshadow="2"
     inkscape:zoom="0.89079959"
     inkscape:cx="284.6925"
     inkscape:cy="467.33672"
     inkscape:document-units="mm"
     inkscape:current-layer="layer1"
     inkscape:document-rotation="0"
     showgrid="false"
     inkscape:window-width="1516"
     inkscape:window-height="1075"
     inkscape:window-x="83"
     inkscape:window-y="32"
     inkscape:window-maximized="0"
     inkscape:pagecheckerboard="true" />
  <metadata
     id="metadata5">
    <rdf:RDF>
      <cc:Work
         rdf:about="">
        <dc:format>image/svg+xml</dc:format>
        <dc:type
           rdf:resource="http://purl.org/dc/dcmitype/StillImage" />
        <dc:title></dc:title>
      </cc:Work>
    </rdf:RDF>
  </metadata>
  <g
     inkscape:label="Layer 1"
     inkscape:groupmode="layer"
     id="layer1">
    <path
       id="path38"
       style="fill:#ffffff;stroke:#ffffff;stroke-width:0.420695px;stroke-linecap:butt;stroke-linejoin:miter;stroke-opacity:1"
       d="m 37.779126,1.5167736 c -1.283592,-0.04001 -2.166102,0.712599 -2.909537,1.604726 -0.793002,0.951599 -2.538051,3.488727 -3.331052,4.281721 -0.792999,0.792994 -2.537213,1.110635 -3.488809,3.6482144 -0.951599,2.537587 -5.709527,14.273449 -8.088526,42.187014 -2.378997,27.913554 4.757318,49.325071 6.184716,55.034661 1.427385,5.7096 -4.916054,13.16315 -4.916054,13.16315 l -10.150917,13.79832 -8.8814354,13.16398 c 0,0 -3.3302022,7.93012 3.9653847,6.18553 7.2955787,-1.7446 19.3486887,-5.55121 19.3486887,-5.55121 0,0 12.529431,-5.23382 14.591225,-7.13702 2.061797,-1.9032 6.02695,0.95149 6.02695,0.95149 0,0 27.120609,18.08057 37.112382,20.61818 6.34399,2.22032 18.418558,6.01777 27.755198,5.23404 22.25712,-1.86827 56.13701,-13.02178 66.45341,-28.86528 11.47502,-17.62289 21.0931,-20.14242 21.0931,-20.14242 l -13.79749,-15.38414 -2.69672,1.42725 -2.22014,-2.37875 c 0,0 -2.72406,3.63547 -2.53732,5.70979 0.39051,4.33822 0.80364,10.55088 1.58581,14.59122 -13.01602,3.88176 -23.04583,5.63599 -32.03692,5.23322 -8.51527,-1.51298 -11.73622,-5.28764 -17.44653,-7.77135 -5.7103,-4.06969 -12.10687,-5.86668 -16.81137,-7.13704 -7.4007,-1.27035 -11.75772,-6.64641 -15.542719,-5.86754 -4.419393,0.46168 -3.876537,2.10202 -3.96538,5.23322 4.351953,4.87579 4.165829,6.4047 6.819864,9.358 2.654035,2.95331 7.376235,5.42579 8.881435,8.2471 1.5052,2.82132 2.76469,4.34522 1.1109,6.97845 -1.65379,2.63323 -6.04236,3.73824 -11.10241,3.33022 -5.06005,-0.40798 -13.206452,-4.16141 -16.969957,-8.2471 -3.76351,-4.08569 -5.148959,-8.35465 -5.234042,-13.48114 -0.08508,-5.12649 3.249614,-11.44059 5.392624,-15.38414 2.143008,-3.94354 5.786224,-6.024247 6.502697,-8.405687 0.716474,-2.38143 0.322818,-2.50191 -0.317166,-4.28253 -2.550607,-2.80112 -7.236323,-7.61619 -10.468079,-13.16317 4.745687,0.002 8.675682,0.40474 12.371069,-0.63433 3.695387,-1.03906 7.405708,-1.89553 9.357183,-5.07545 C 101.37066,69.40806 101.294,65.280201 99.736355,60.851222 98.178701,56.422276 93.9105,52.117574 89.110512,48.322397 84.310525,44.52722 76.886665,40.01432 71.029658,39.122981 c -5.857006,-0.891338 -6.919734,-0.551962 -8.881436,0 -1.961701,0.551963 -2.854483,1.745232 -2.854483,1.745232 0,0 -5.162722,-0.355387 -6.978446,0.317163 -1.815724,0.672551 -2.962385,1.882038 -3.648214,2.854484 -0.68583,0.972446 -0.792914,2.378732 -0.792914,2.378732 0,0 -0.733406,-1.313364 -1.902985,-2.537321 -2.13794,-0.497695 -4.259821,-2.993484 -5.392623,-4.441126 -1.132806,-1.447642 -1.27556,-2.24086 -1.744409,-3.6474 -0.468847,-1.40654 -0.990546,-3.138892 -1.193886,-4.596424 -0.203334,-1.457532 -0.629003,-3.035 -0.317166,-3.965374 0.286434,-0.854577 1.281883,-1.453493 1.448606,-1.549674 -0.157604,0.0706 -0.599349,-0.02337 -0.889048,-3.052506 -0.356661,-3.72943 2.220156,-19.1901064 2.220156,-19.1901064 0,0 -0.634173,-1.745203 -2.061571,-1.90381 -0.08922,-0.0099 -0.176541,-0.01542 -0.262113,-0.01809 z m 3.938265,2.002413 19.69215,32.7739564 c 0,1.6e-5 -4.895067,-13.706592 -8.477992,-18.904985 C 49.348618,12.18978 50.099718,14.052293 48.694192,12.14262 47.28867,10.23296 45.637185,7.7055536 44.534077,5.9217506 43.430967,4.1379446 41.717391,3.5191866 41.717391,3.5191866 Z M 31.240273,25.897374 c 0,0 0.100489,1.427448 0.580099,1.741129 0.479615,0.313665 1.596506,-0.145487 1.596506,-0.145487 l 0.290048,1.886553 c 0,0 1.594793,2.814511 1.886557,4.498638 0.291761,1.684127 0.539858,2.323621 -0.290052,5.369624 -0.829906,3.046002 -3.199173,9.978609 -6.240584,12.044868 -0.802876,-0.545364 -1.096615,-2.093385 -1.45107,-4.208601 -0.354457,-2.115215 -0.166214,-5.557406 0,-8.416374 0.166212,-2.858967 0.252711,-6.573721 1.016407,-8.707238 0.763692,-2.133517 2.612089,-4.06316 2.612089,-4.06316 z M 101.10854,61.94405 c 0,0 0.87558,4.303525 0.75758,6.056532 -0.11799,1.753007 -0.36037,2.888051 -1.13554,4.290761 -0.775178,1.40272 -2.250467,2.86575 -3.533188,3.78544 -1.282721,0.91969 -2.518307,1.29785 -3.911973,1.76659 -1.393666,0.46874 -2.793849,0.76708 -4.416479,1.00901 -1.622621,0.24194 -3.887422,0.35666 -5.298952,0.3788 -1.411524,0.0221 -3.155214,-0.12657 -3.155214,-0.12657 l 1.640877,2.01883 c 0,0 1.362138,0.0825 2.523351,0 1.161211,-0.0825 2.444512,-0.47771 3.921009,-0.30072 0.899573,0.1078 1.682861,0.43832 3.018816,0.67951 1.335955,0.24119 3.681436,0.39361 5.426312,-0.12656 1.744875,-0.52015 3.449631,-1.56469 4.668731,-2.90214 1.2191,-1.33745 1.95165,-3.09504 2.39681,-4.79445 0.44516,-1.69941 0.553,-3.55602 0.25308,-5.173238 -0.29993,-1.617218 -1.35252,-3.203145 -1.89313,-4.290757 -0.54061,-1.087612 -1.26209,-2.271102 -1.26209,-2.271102 z M 83.738431,82.806263 c 0,0 1.256041,2.75945 2.548,4.41073 1.291959,1.65127 2.552943,2.39684 5.390981,5.19459 2.838035,2.79775 7.679206,8.324797 11.565008,11.662797 3.88581,3.338 11.56501,8.42868 11.56501,8.42868 z" />
  </g>
</svg>
